<?xml version="1.0" encoding="UTF-8" standalone="no"?>
<!-- Created with Inkscape (http://www.inkscape.org/) -->

<svg
   xmlns:dc="http://purl.org/dc/elements/1.1/"
   xmlns:cc="http://creativecommons.org/ns#"
   xmlns:rdf="http://www.w3.org/1999/02/22-rdf-syntax-ns#"
   xmlns:svg="http://www.w3.org/2000/svg"
   xmlns="http://www.w3.org/2000/svg"
   xmlns:sodipodi="http://sodipodi.sourceforge.net/DTD/sodipodi-0.dtd"
   xmlns:inkscape="http://www.inkscape.org/namespaces/inkscape"
   version="1.1"
   id="svg815"
   width="426"
   height="473"
   viewBox="0 0 426 473"
   sodipodi:docname="logo.svg"
   inkscape:version="0.92.3 (2405546, 2018-03-11)">
  <metadata
     id="metadata821">
    <rdf:RDF>
      <cc:Work
         rdf:about="">
        <dc:format>image/svg+xml</dc:format>
        <dc:type
           rdf:resource="http://purl.org/dc/dcmitype/StillImage" />
        <dc:title></dc:title>
      </cc:Work>
    </rdf:RDF>
  </metadata>
  <defs
     id="defs819" />
  <sodipodi:namedview
     pagecolor="#ffffff"
     bordercolor="#666666"
     borderopacity="1"
     objecttolerance="10"
     gridtolerance="10"
     guidetolerance="10"
     inkscape:pageopacity="0"
     inkscape:pageshadow="2"
     inkscape:window-width="1366"
     inkscape:window-height="704"
     id="namedview817"
     showgrid="false"
     inkscape:zoom="1.0803383"
     inkscape:cx="213"
     inkscape:cy="236.5"
     inkscape:window-x="0"
     inkscape:window-y="27"
     inkscape:window-maximized="1"
     inkscape:current-layer="svg815" />
  <path
     style="fill:#cccccc"
     d="m 196.1844,471.43788 c -18.53242,-4.98726 -31.81719,-22.47011 -34.71345,-45.68314 -1.07357,-8.6045 -4.20612,-10.96125 -46.69197,-35.12854 C 78.786383,370.15247 83.957246,371.77891 72.286258,377.26058 59.826356,383.1128 54.682012,384.37469 45.709522,383.77981 26.53858,382.50877 8.982423,369.15123 2.818963,351.14669 c -3.04970001,-8.90871 -3.25887001,-25.17204 -0.41988,-32.6467 3.06494,-8.06954 8.48095,-15.36267 16.258242,-21.89312 l 7.272851,-6.10688 -0.02406,-51 -0.02406,-51 -6.585199,-5.48386 C 6.444223,172.31302 1.125163,162.52929 0.25984299,147.99999 -0.64204701,132.85661 4.211933,119.64742 14.431153,109.43544 28.742935,95.133824 47.284499,91.457144 66.916308,99.027964 c 7.464787,2.878716 8.7285,3.095416 12.122214,2.078636 4.162738,-1.247176 61.013448,-33.351015 70.661128,-39.902633 8.17953,-5.554612 11.04268,-9.181905 11.80743,-14.958722 1.11827,-8.447255 4.33481,-17.690529 8.28038,-23.795091 15.26724,-23.6213882 45.70916,-29.4022862 68.64496,-13.0356292 10.64067,7.5930232 16.81178,17.8690722 20.20014,33.6369872 2.86339,13.324978 1.52293,12.276059 52.36744,40.977622 25.30811,14.28634 33.27451,18.338826 36,18.313086 1.925,-0.0182 8,-1.67357 13.5,-3.678686 11.34163,-4.13476 18.24828,-4.66152 27.95845,-2.13234 30.39153,7.915976 46.17933,41.340346 32.57701,68.968796 -3.27541,6.65287 -8.1693,12.07593 -18.28546,20.26268 l -6.75,5.4626 v 48.6453 48.64531 l 6.62923,4.49205 c 17.36745,11.76842 25.36874,29.08594 22.48371,48.66245 -3.16094,21.44873 -17.39296,36.34131 -39.11294,40.9283 -12.55001,2.65041 -23.3025,0.57004 -34.56972,-6.68848 -3.33834,-2.15062 -6.93834,-3.90581 -8,-3.90044 -3.22196,0.0163 -11.02881,4.09393 -46.94177,24.51835 -33.53036,19.06939 -34.46774,19.68609 -35.38531,23.28009 -0.51839,2.03048 -1.90336,7.51679 -3.0777,12.19179 -1.17434,4.675 -3.92311,12.21202 -6.10839,16.74893 -4.28659,8.89949 -9.36384,13.91006 -19.08876,18.83805 -10.18786,5.16258 -25.70879,6.79367 -36.64395,3.85091 z m -9.69909,-89.66075 8.5147,-4.22285 v -45.54687 -45.54687 l -5.18108,-3.98027 c -17.0095,-13.06727 -23.23547,-23.32235 -25.39172,-41.82386 -1.10576,-9.48792 -4.60639,-12.16064 -55.32221,-42.2382 l -28.395021,-16.83997 -9.475281,4.92871 -9.475281,4.9287 0.475636,46.03217 c 0.2616,25.31769 0.825255,46.84932 1.252567,47.84806 0.427313,0.99874 3.860841,3.84758 7.630063,6.33075 10.31777,6.79738 17.929809,15.65814 21.744505,25.31161 1.736977,4.39559 3.772118,10.92101 4.522528,14.50094 0.75042,3.57992 2.08105,7.6027 2.956954,8.9395 0.87591,1.3368 5.31986,4.89514 9.87545,7.90741 14.28451,9.44528 64.4163,37.63121 67.01819,37.68009 0.40442,0.008 4.56692,-1.88648 9.25,-4.20905 z M 258.5,378.54401 c 15.66677,-8.18446 50.9812,-28.4323 58.27637,-33.41327 8.46137,-5.77723 10.17844,-8.05105 11.91229,-15.77484 3.58139,-15.954 12.03414,-28.76185 23.91055,-36.22995 l 7.35661,-4.62596 -0.0776,-47 c -0.0427,-25.85 -0.39002,-48.125 -0.77187,-49.5 -0.49264,-1.7739 -2.96903,-3.78422 -8.52637,-6.92166 -6.72014,-3.7939 -8.20721,-4.28006 -10.47433,-3.42432 -3.96776,1.49766 -73.2816,44.27404 -75.70961,46.72347 -1.69207,1.707 -2.3086,4.17804 -3.14935,12.62251 -1.8812,18.89484 -8.10497,29.85365 -22.23054,39.14348 l -8.1448,5.35652 0.37482,45 c 0.40929,49.14018 0.52594,50.15944 6.13447,53.60421 4.23863,2.60338 6.76652,1.93785 21.11935,-5.56019 z M 190.11159,196.07347 c 11.51523,-5.39013 16.35101,-6.43855 26.9184,-5.83603 7.54944,0.43046 10.05999,1.05813 16.53904,4.13502 4.20121,1.99514 8.61678,3.62753 9.8124,3.62753 3.34541,0 14.80834,-6.24235 42.11857,-22.93643 38.73162,-23.67571 41.5,-25.93004 41.5,-33.79406 0,-6.17174 -2.31335,-8.97363 -13.2405,-16.0367 -10.48722,-6.7787 -67.30133,-39.232796 -68.68089,-39.232796 -0.4952,0 -5.10296,2.03139 -10.23948,4.51421 -19.00084,9.18437 -30.7134,9.30165 -48.73639,0.48799 l -9.82578,-4.80503 -5.88848,3.28555 c -49.15436,27.426296 -69.36127,39.085736 -71.605474,41.316516 -2.664461,2.64851 -2.697941,2.83445 -1.73104,9.61341 1.72133,12.06819 2.8953,13.14907 35.448044,32.63676 29.66938,17.76157 45.85646,26.91917 47.61158,26.93555 0.88636,0.008 5.38636,-1.7519 10,-3.91149 z"
     id="path825"
     inkscape:connector-curvature="0"
     inkscape:export-xdpi="96"
     inkscape:export-ydpi="96" />
</svg>
