<?xml version="1.0" encoding="UTF-8" standalone="no"?>
<!-- Created with Inkscape (http://www.inkscape.org/) -->

<svg
   xmlns:dc="http://purl.org/dc/elements/1.1/"
   xmlns:cc="http://creativecommons.org/ns#"
   xmlns:rdf="http://www.w3.org/1999/02/22-rdf-syntax-ns#"
   xmlns:svg="http://www.w3.org/2000/svg"
   xmlns="http://www.w3.org/2000/svg"
   xmlns:sodipodi="http://sodipodi.sourceforge.net/DTD/sodipodi-0.dtd"
   xmlns:inkscape="http://www.inkscape.org/namespaces/inkscape"
   version="1.1"
   id="svg115"
   width="500"
   height="500"
   viewBox="0 0 500 500"
   sodipodi:docname="logo.svg"
   inkscape:version="0.92.3 (2405546, 2018-03-11)">
  <metadata
     id="metadata121">
    <rdf:RDF>
      <cc:Work
         rdf:about="">
        <dc:format>image/svg+xml</dc:format>
        <dc:type
           rdf:resource="http://purl.org/dc/dcmitype/StillImage" />
        <dc:title></dc:title>
      </cc:Work>
    </rdf:RDF>
  </metadata>
  <defs
     id="defs119" />
  <sodipodi:namedview
     pagecolor="#ffffff"
     bordercolor="#666666"
     borderopacity="1"
     objecttolerance="10"
     gridtolerance="10"
     guidetolerance="10"
     inkscape:pageopacity="0"
     inkscape:pageshadow="2"
     inkscape:window-width="1313"
     inkscape:window-height="713"
     id="namedview117"
     showgrid="false"
     inkscape:zoom="2.214"
     inkscape:cx="172.99006"
     inkscape:cy="250"
     inkscape:window-x="53"
     inkscape:window-y="27"
     inkscape:window-maximized="1"
     inkscape:current-layer="svg115" />
  <path
     style="fill:#fafafa;stroke-width:1.60711968;fill-opacity:1"
     d="m 112.91528,349.1963 c -2.75383,-4.00255 -5.42109,-9.8294 -5.92726,-12.94853 -0.78629,-4.84527 -0.41943,-5.80215 2.51908,-6.5706 6.97165,-1.82311 2.47043,-14.98861 -5.12455,-14.98861 -2.34401,0 -2.68591,2.20947 -2.68591,17.3569 0,17.904 -1.05318,21.21398 -6.749905,21.21398 -2.610348,0 -2.892815,-1.72616 -2.892815,-17.67832 0,-16.6069 -0.194799,-17.67832 -3.21424,-17.67832 -4.015549,0 -4.152475,-3.47409 -0.275235,-6.98295 4.423533,-4.00324 23.515245,-3.66618 30.408725,0.53686 6.71743,4.0957 7.21023,11.07825 1.11996,15.86884 l -4.10319,3.22757 3.88462,6.15361 c 2.13652,3.38448 5.06776,7.13555 6.51385,8.3357 3.41926,2.83774 3.3259,5.48127 -0.30974,8.77148 -4.69626,4.25006 -7.81497,3.15604 -13.16339,-4.61761 z m 49.55458,0.95937 c -3.66123,-6.41048 -3.86592,-6.51439 -12.85467,-6.52658 -8.77341,-0.0113 -9.15426,0.16219 -9.64271,4.40721 -0.40619,3.53016 -1.44239,4.52621 -5.14904,4.94943 -5.54647,0.63328 -5.723,1.54221 4.472,-23.02696 4.034,-9.72167 8.57245,-18.58092 10.0854,-19.68721 4.60088,-3.36425 8.08435,-2.40575 9.06432,2.49409 1.01588,5.07936 10.65063,26.12305 15.05266,32.8772 3.34967,5.13945 1.63738,9.69128 -3.96006,10.52713 -2.48067,0.37044 -4.31081,-1.18689 -7.0679,-6.01431 z m -8.92195,-18.99413 c -1.50633,-3.31468 -2.94104,-6.32803 -3.18823,-6.69634 -0.74733,-1.11344 -1.83244,0.54424 -4.43744,6.77888 l -2.48362,5.94416 h 6.42404 6.42404 z m 33.81549,22.90266 c -6.9263,-4.85136 -10.57325,-13.14195 -9.81314,-22.30804 0.70685,-8.5236 5.10968,-16.92125 8.92195,-17.0171 1.10489,-0.0278 2.0089,-0.68597 2.0089,-1.46264 0,-4.99933 22.81669,-6.63604 23.75056,-1.70369 0.74141,3.91583 -6.45871,7.11964 -10.42862,4.64038 -4.71908,-2.94712 -10.99037,-0.72499 -13.23286,4.68885 -2.08648,5.0372 -0.37441,14.77946 3.49407,19.88255 3.45858,4.56239 11.04599,7.67832 14.36789,5.90049 3.55415,-1.90212 3.86188,-8.33936 0.53083,-11.10388 -3.68014,-3.05425 -2.88309,-6.24867 1.85587,-7.43807 9.88723,-2.48154 13.16948,6.99459 6.00407,17.33426 -2.43885,3.51927 -6.43474,7.43316 -8.87975,8.69753 -5.76939,2.98345 -14.23429,2.93304 -18.57977,-0.11057 z m 42.50104,1.25838 c -4.24958,-0.64377 -4.41958,-1.03634 -4.41958,-10.20549 0,-5.28589 -0.71628,-9.53597 -1.60712,-9.53597 -0.88392,0 -1.60712,-1.44641 -1.60712,-3.21424 0,-1.76783 0.7232,-3.21424 1.60712,-3.21424 0.88391,0 1.60712,-3.25442 1.60712,-7.23204 0,-4.07932 -0.75197,-7.23204 -1.72496,-7.23204 -0.94873,0 -1.48198,-1.26165 -1.18502,-2.80368 0.46158,-2.39679 2.69432,-2.85018 15.38547,-3.12413 13.17002,-0.28428 14.84554,-0.005 14.84554,2.48226 0,4.5517 -3.40839,6.65979 -10.7677,6.65979 -6.60704,0 -6.91061,0.21179 -6.91061,4.82136 0,4.64279 0.26786,4.82136 7.23204,4.82136 4.34113,0 7.23203,0.73221 7.23203,1.83173 0,2.90047 -5.21831,6.09695 -10.04449,6.15276 -4.07625,0.0471 -4.41958,0.55051 -4.41958,6.47959 v 6.42848 h 9.64271 c 9.57606,0 10.54065,0.61138 8.66722,5.49347 -0.74662,1.94568 -3.10335,2.48564 -10.0445,2.30133 -4.98794,-0.13243 -11.0578,-0.54208 -13.48857,-0.9103 z m 56.88156,-2.9193 c -6.00322,-5.05136 -8.8882,-13.40536 -7.84022,-22.70287 0.81831,-7.26 4.7891,-13.40473 8.66227,-13.40473 1.18887,0 2.1616,-0.99707 2.1616,-2.2157 0,-5.6258 22.70627,-8.02281 23.75056,-2.50725 0.71447,3.77353 -6.87041,7.39501 -10.01765,4.78304 -1.54632,-1.28333 -4.4629,-1.6535 -7.91916,-1.00511 -4.58707,0.86054 -5.62879,1.86589 -6.44575,6.22065 -0.98176,5.2332 0.43365,12.4547 3.60112,18.37316 2.48584,4.64486 11.43414,8.63924 15.03573,6.71173 3.50111,-1.87373 3.83438,-9.20557 0.47702,-10.4939 -3.18256,-1.22126 -3.09341,-6.40377 0.13147,-7.64127 5.07067,-1.94581 8.80605,-0.91092 10.55324,2.92378 2.19708,4.82204 0.86148,10.12629 -3.87415,15.38615 -9.41068,10.45242 -19.99705,12.53865 -28.27607,5.57232 z m 63.62665,1.25794 c -2.64135,-2.93296 -10.82229,-18.46515 -10.82229,-20.547 0,-1.65816 5.20711,-5.45548 7.56608,-5.51759 1.06762,-0.0281 3.7861,3.09706 6.04103,6.94483 2.25495,3.84776 5.53985,8.29908 7.29979,9.8918 3.9728,3.59534 4.03862,5.96186 0.26089,9.38065 -3.78255,3.42316 -7.17021,3.37315 -10.3455,-0.15268 z m 22.77242,0.86492 c -3.77531,-3.04654 -7.8808,-11.72899 -7.8808,-16.66662 0,-5.42831 5.88188,-15.13536 9.17113,-15.13536 1.85773,0 2.25525,1.12621 1.58333,4.48576 -1.6977,8.4885 7.55472,22.83528 14.72676,22.83528 3.84158,0 8.2683,-6.6276 8.2683,-12.37912 0,-11.0196 -8.27088,-21.22474 -17.27654,-21.31693 -6.87629,-0.0704 -6.80988,-3.65534 0.1141,-6.15909 15.04043,-5.43869 26.81327,3.033 26.79914,19.28455 -0.006,7.08529 -2.75521,12.77549 -10.20185,21.11653 -3.37477,3.78012 -5.67668,4.68748 -13.40622,5.28449 -6.18576,0.47777 -10.19679,0.0228 -11.89735,-1.34949 z m 54.33789,-3.2756 c -7.03063,-6.31412 -17.21934,-25.30695 -17.21934,-32.0987 0,-5.08891 3.61434,-9.143 8.23198,-9.23353 1.83165,-0.0358 2.92719,1.95087 3.68339,6.67988 1.13703,7.11065 7.50537,21.08451 11.76389,25.81319 4.9523,5.49905 9.0147,3.55662 12.07916,-5.77567 1.54685,-4.71066 2.81246,-11.82359 2.81246,-15.80649 0,-6.61201 0.48355,-7.50203 5.56147,-10.23667 3.05881,-1.64729 6.0954,-2.46113 6.74799,-1.80854 2.73197,2.73197 -10.06314,36.43983 -13.83214,36.43983 -0.93037,0 -1.69156,1.03232 -1.69156,2.29403 0,2.56736 -7.41524,8.95581 -10.39525,8.95581 -1.0594,0 -4.54333,-2.35042 -7.74205,-5.22314 z M 51.879383,346.42918 c -0.950162,-3.75664 -2.375484,-8.27667 -3.167408,-10.0445 -1.235843,-2.75881 -1.455263,-2.81575 -1.548621,-0.40178 -0.05978,1.54685 -1.193576,2.81246 -2.519449,2.81246 -1.325874,0 -2.41068,0.95874 -2.41068,2.13054 0,2.6606 -6.727049,9.1193 -9.498206,9.1193 -2.667738,0 -11.211926,-6.0906 -15.763144,-11.23653 l -3.565234,-4.03111 -0.05079,5.9119 c -0.05577,6.49617 -3.3972743,10.96286 -8.2011849,10.96286 -3.7206267,0 -3.7226838,-0.0413 -0.7120504,-14.35333 C 6.612205,326.9851 6.5884196,325.44314 4.1817691,320.39635 2.006179,315.8341 1.9020537,314.39891 3.5982882,312.35507 c 3.70853,-4.46851 7.6029508,-2.82166 12.1690178,5.14595 6.114175,10.66896 16.680296,21.29434 21.175619,21.29434 2.202525,0 3.68318,-0.96911 3.68318,-2.41068 0,-1.32587 0.608729,-2.41068 1.352729,-2.41068 1.695319,0 5.07575,-11.03445 5.07575,-16.56831 0,-2.45835 1.451872,-5.15892 3.57184,-6.6438 6.134456,-4.29675 7.353424,-3.18649 7.399002,6.73913 0.0233,5.08252 1.587256,14.17482 3.47538,20.2051 3.784189,12.08591 2.862393,15.55332 -4.134781,15.55332 -3.080029,0 -4.07114,-1.23382 -5.486642,-6.83026 z m 18.734773,-9.64272 c -0.50147,-9.06014 -1.1259,-18.23751 -1.38762,-20.39416 -0.346784,-2.85776 0.698037,-4.58954 3.85262,-6.38568 2.380642,-1.35546 4.762217,-2.03071 5.29239,-1.50053 0.530172,0.53015 1.403545,9.70692 1.940822,20.39279 1.027351,20.43272 0.06782,24.36056 -5.951261,24.36056 -2.465113,0 -2.954175,-2.15012 -3.746951,-16.47298 z M 326.6934,335.58112 c 0,-14.64264 -0.41396,-17.67832 -2.41068,-17.67832 -2.8838,0 -3.1963,-5 -0.48214,-7.71417 2.33727,-2.33727 21.84635,-2.58621 27.7183,-0.3537 5.65639,2.15055 8.40463,8.42007 6.00221,13.69279 -2.51471,5.51919 -7.20075,5.13737 -9.4299,-0.76835 -1.73693,-4.60166 -9.11331,-9.64116 -11.1422,-7.61228 -0.53935,0.53937 -0.8695,8.57145 -0.73366,17.84907 0.22384,15.28802 -0.0501,17.02744 -2.9247,18.56585 -6.16479,3.29929 -6.59723,2.25177 -6.59723,-15.98089 z m 143.03365,-0.15043 c 0,-16.47718 -0.24367,-17.89249 -3.21424,-18.66931 -1.76783,-0.46231 -3.21424,-1.58048 -3.21424,-2.48483 0,-3.71841 6.02342,-5.91612 16.34967,-5.96533 9.23507,-0.044 11.41158,0.52682 15.66941,4.10955 6.06545,5.10375 6.53876,11.45981 1.22508,16.45177 -5.26745,4.94849 -7.53024,4.38314 -7.53024,-1.88146 0,-3.16699 -1.20759,-6.46869 -2.939,-8.0356 -5.84174,-5.28673 -6.70372,-3.46622 -6.70372,14.15842 0,14.98286 -0.33923,16.99976 -3.10859,18.48188 -6.09889,3.26403 -6.53413,2.18726 -6.53413,-16.16512 z M 279.45358,265.73935 c 0.77915,-7.60488 0.29968,-13.32251 -1.79416,-21.39543 -2.50825,-9.67065 -2.58097,-11.59397 -0.5951,-15.73735 3.88091,-8.09725 7.98343,-6.22688 11.67835,5.32423 1.76714,5.52447 3.86925,10.0445 4.67136,10.0445 0.80212,0 3.98961,-2.53122 7.08332,-5.62492 6.9897,-6.9897 8.51773,-7.04631 8.51773,-0.31554 0,8.18716 -7.34936,21.06194 -17.12068,29.99239 -12.13732,11.09282 -13.78074,10.79058 -12.44082,-2.28788 z M 238.97483,245.9842 c -5.70389,-25.32676 -5.16811,-24.45447 -10.93341,-17.80017 -9.51005,10.97648 -25.09624,19.68656 -25.09624,14.02461 0,-0.97167 2.61078,-5.99647 5.80174,-11.16622 6.42402,-10.40774 15.09082,-34.40614 15.09082,-41.78653 0,-5.45307 3.96132,-6.59926 5.28702,-1.52978 0.4623,1.76783 1.81225,3.21523 2.9999,3.21647 1.25215,0.001 3.34956,4.05243 4.99232,9.64272 1.55814,5.30226 3.38839,9.64048 4.06724,9.64048 0.67884,0 2.05321,-2.16961 3.05414,-4.82136 4.24253,-11.23977 10.58056,-0.7888 10.78579,17.78503 0.0824,7.45786 -0.82197,10.46523 -5.43706,18.0801 -6.10783,10.07786 -9.10456,11.4092 -10.61226,4.71465 z m 82.01715,-10.44628 c 0.62086,-2.87273 1.54063,-8.11596 2.04394,-11.65162 0.50331,-3.53566 1.89375,-7.00682 3.08986,-7.71368 1.24433,-0.73535 2.17474,-4.00129 2.17474,-7.63381 0,-4.77529 0.64386,-6.34863 2.59804,-6.34863 1.96406,0 2.35623,-0.98042 1.60712,-4.01779 -0.54501,-2.20979 -1.43683,-5.82581 -1.98184,-8.0356 -1.80129,-7.30362 3.83364,-4.64411 8.13183,3.83796 7.28157,14.36951 8.78391,40.35783 2.33299,40.35783 -1.67498,0 -3.04946,-0.90401 -3.05439,-2.0089 -0.005,-1.1049 -0.82514,-4.90172 -1.8227,-8.43738 l -1.81375,-6.42848 -3.07279,7.23204 c -1.69003,3.97762 -3.93917,9.22085 -4.99808,11.65162 -2.81918,6.47148 -6.67922,5.87897 -5.23497,-0.80356 z M 191.76533,200.98484 c 0.0384,-5.96643 0.6646,-13.92167 1.39134,-17.67831 0.72672,-3.75664 1.00928,-6.83026 0.6279,-6.83026 -1.81092,0 -8.14281,4.00637 -11.97483,7.57685 -5.94962,5.54355 -10.33455,4.35468 -9.76413,-2.6473 0.53083,-6.51612 6.05442,-23.79955 8.57777,-26.83999 1.50491,-1.81332 0.54462,-2.01361 -5.60954,-1.1701 -6.31868,0.86608 -7.42529,0.61018 -7.42529,-1.71703 0,-4.93728 3.82089,-10.79938 13.32641,-20.44565 8.61577,-8.74335 16.7999,-7.81131 10.02793,1.14204 -3.45082,4.56242 -2.98577,5.64997 1.66064,3.88341 6.29801,-2.39451 7.57165,-1.93105 6.73407,2.45046 -0.42243,2.20979 -0.14512,4.0178 0.6162,4.0178 2.16544,0 1.62162,5.9905 -0.62464,6.88089 -1.10489,0.43796 -3.27429,2.977 -4.82091,5.64228 l -2.81201,4.846 8.0524,-3.05967 c 9.73296,-3.69824 17.66062,-4.03213 17.66062,-0.74384 0,1.27371 -0.71075,2.7551 -1.57945,3.29198 -0.86868,0.53689 -3.45659,7.26921 -5.7509,14.96071 -6.48302,21.73385 -10.56249,32.91055 -12.84561,35.19365 -4.24278,4.2428 -5.53844,2.1685 -5.46797,-8.75392 z m 98.90694,6.50889 c -1.64813,-7.04128 -4.41868,-13.33914 -5.86809,-13.33914 -0.72671,0 -2.60291,2.16961 -4.16934,4.82136 -4.67884,7.92064 -8.16198,6.3441 -9.49136,-4.29598 -0.96448,-7.71935 -1.4406,-8.70504 -3.10527,-6.42848 -5.17522,7.07753 -7.5691,-0.0538 -3.03545,-9.04257 6.2552,-12.40195 15.66699,-18.80385 27.64458,-18.80385 11.73303,0 18.97062,6.7636 21.9268,20.49078 0.88504,4.10974 0.59986,5.22314 -1.33784,5.22314 -2.01067,0 -2.28798,1.47484 -1.51095,8.0356 0.79539,6.71599 0.52581,8.03559 -1.64158,8.03559 -1.42629,0 -3.81291,-2.35041 -5.30358,-5.22313 l -2.71032,-5.22314 -2.55688,9.62124 c -2.88456,10.85418 -7.05749,13.74695 -8.84072,6.12858 z m 43.76205,-40.14849 c -2.64175,-5.97212 -2.94701,-8.13427 -1.48002,-10.48329 1.29298,-2.07039 1.35436,-3.88209 0.20432,-6.03096 -4.37675,-8.17803 2.64927,-9.08223 8.72063,-1.12228 4.67219,6.12557 5.20483,9.08924 1.63356,9.08924 -2.02996,0 -2.27755,1.42097 -1.40008,8.0356 0.91336,6.8853 0.67829,8.0356 -1.64214,8.0356 -1.67981,0 -3.97183,-2.8569 -6.03627,-7.52391 z m -76.18712,-2.92237 c 0.82624,-3.29199 0.42222,-4.0178 -2.23645,-4.0178 -4.44359,0 -4.06859,-2.32036 1.1583,-7.167 3.58162,-3.32106 3.87206,-4.08284 1.55669,-4.08284 -1.56556,0 -3.26276,1.08481 -3.77154,2.41068 -1.17926,3.07307 -7.00967,3.16605 -7.00967,0.1117 0,-1.2644 1.57056,-2.53001 3.49014,-2.81246 4.60313,-0.67724 5.84927,-4.53127 1.46514,-4.53127 -2.16842,0 -3.34816,-1.03235 -3.34816,-2.92985 0,-2.46601 -1.29268,-2.91126 -8.16531,-2.81246 -7.26162,0.10447 -8.68453,-0.46347 -12.85695,-5.13111 -5.57907,-6.24124 -5.85193,-10.74395 -1.29322,-21.34092 3.75884,-8.73769 3.20775,-12.785011 -1.74088,-12.785011 -1.79557,0 -3.26467,-1.043793 -3.26467,-2.319556 0,-3.625357 6.38205,-7.206293 14.84379,-8.328786 8.64446,-1.146728 10.36009,-2.511671 6.83463,-5.437544 -1.31613,-1.092295 -2.39298,-2.982252 -2.39298,-4.199886 0,-1.725099 3.37096,-2.213904 15.26763,-2.213904 h 15.26764 v -5.624919 c 0,-5.799211 3.31851,-7.784792 5.94684,-3.558211 3.27602,5.268138 10.76788,9.18313 17.57313,9.18313 5.95899,0 7.0153,0.487118 7.0153,3.235132 0,2.237046 2.20711,4.307418 7.15402,6.710801 4.41631,2.145618 7.85471,5.16734 8.98505,7.896245 3.05083,7.365349 -1.05056,14.188219 -5.77314,9.603919 -0.83972,-0.81514 -4.23878,-1.98043 -7.55347,-2.58953 -5.238,-0.96255 -6.0267,-0.70792 -6.0267,1.9458 0,1.6793 1.44641,5.89032 3.21424,9.35783 4.67745,9.17454 4.24838,10.42824 -3.61602,10.56539 -10.85034,0.18924 -20.97918,2.13016 -21.64852,4.14836 -0.33871,1.02123 2.13364,2.7427 5.49409,3.82546 8.27429,2.66603 10.12774,4.40123 10.12774,9.48148 0,3.94252 -5.98972,11.49007 -10.44628,13.16321 -3.5882,1.34713 -20.15119,11.45505 -20.98736,12.80798 -1.9335,3.12847 -4.2374,1.31808 -3.26305,-2.56406 z m 11.95282,-53.84818 c -2.25155,-6.45882 -8.65594,-11.240161 -15.05567,-11.240161 -6.0325,0 -18.36083,4.652981 -12.60779,4.758461 1.88714,0.0345 4.61584,1.87091 6.06374,4.0807 2.18843,3.33996 3.91421,4.02194 10.22934,4.0424 4.17822,0.0129 8.68158,0.72566 10.00745,1.58252 1.32587,0.85685 2.55386,1.56898 2.72886,1.58251 0.175,0.0129 -0.43968,-2.14936 -1.36593,-4.80643 z m 35.53665,46.55197 c -6.76197,-6.76197 -8.13538,-15.84307 -3.15007,-20.82838 6.74423,-6.74423 16.05844,-1.74988 13.76656,7.38172 -0.54983,2.19067 -0.26061,3.86811 0.66691,3.86811 0.90075,0 1.63773,1.44641 1.63773,3.21424 0,1.76784 -0.7232,3.21424 -1.60712,3.21424 -0.88391,0 -1.60712,1.44641 -1.60712,3.21424 0,4.27671 -5.40172,4.241 -9.70689,-0.0641 z m 7.5453,-33.41011 c -3.36079,-3.71363 -3.55758,-11.52506 -0.29036,-11.52506 2.52352,0 7.27331,7.81926 7.27331,11.97358 0,3.38181 -3.73358,3.142 -6.98295,-0.44852 z M 185.26687,93.020477 c 0,-5.071395 9.68857,-13.964778 16.60587,-15.242968 12.02291,-2.221586 18.70899,7.302093 9.10804,12.973506 -2.65175,1.566427 -4.82136,3.415322 -4.82136,4.108666 0,0.693327 -1.53072,1.260608 -3.4016,1.260608 -2.76175,0 -3.25711,-0.755732 -2.63353,-4.017799 0.42243,-2.20979 0.43033,-4.017799 0.0175,-4.017799 -0.41275,0 -2.89916,1.808009 -5.52535,4.017799 -5.71058,4.805175 -9.34958,5.16247 -9.34958,0.917987 z"
     id="path125"
     inkscape:connector-curvature="0"
     inkscape:export-xdpi="96"
     inkscape:export-ydpi="96" />
</svg>
